<svg width="24" height="24" viewBox="0 0 24 24" fill="white" xmlns="http://www.w3.org/2000/svg">
<g clip-path="url(#clip0_1249_3719)">
<path fill-rule="evenodd" clip-rule="evenodd" d="M14.246 2.49115C14.8934 1.87908 15.8357 1.69517 16.6658 2.01887L16.7757 2.0617C17.2916 2.26292 17.7029 2.66641 17.9139 3.17847C18.213 3.90404 18.0666 4.737 17.5381 5.31713L12.1501 11.2314C11.9146 11.4899 11.5812 11.6371 11.2316 11.6371C10.9991 11.6371 10.7712 11.5719 10.5739 11.4488L9.07779 10.5153C8.60923 10.2229 7.99239 10.3658 7.70003 10.8343C7.40768 11.3029 7.55052 11.9197 8.01908 12.2121L9.51522 13.1456C10.0301 13.4668 10.6248 13.6371 11.2316 13.6371C12.144 13.6371 13.0141 13.2528 13.6286 12.5783L19.0165 6.66402C20.0662 5.51182 20.357 3.85747 19.7631 2.4164C19.3439 1.39939 18.5271 0.598022 17.5023 0.198373L17.3924 0.155537C15.8418 -0.44916 14.0815 -0.105599 12.872 1.03779L9.90244 3.84517C9.50111 4.22458 9.48334 4.85749 9.86275 5.25883C10.2422 5.66016 10.8751 5.67793 11.2764 5.29852L14.246 2.49115ZM5.67191 17.4856C5.04761 18.1232 4.11283 18.3448 3.27136 18.0546L3.15974 18.0161C2.63677 17.8358 2.21093 17.4491 1.9811 16.946C1.6554 16.2329 1.77079 15.3947 2.27736 14.7939L7.44198 8.66801C7.66771 8.40028 7.99547 8.2397 8.34486 8.22568C8.57725 8.21636 8.8074 8.27244 9.00913 8.38755L10.5388 9.26037C11.0178 9.53371 11.6288 9.36621 11.9036 8.88624C12.1783 8.40626 12.0126 7.79558 11.5336 7.52224L10.004 6.64942C9.4776 6.34906 8.87707 6.20273 8.27069 6.22706C7.35904 6.26364 6.50382 6.68263 5.91484 7.38123L0.750216 13.5071C-0.255967 14.7006 -0.485168 16.3655 0.161753 17.7817C0.618267 18.7811 1.4641 19.5491 2.50285 19.9073L2.61448 19.9458C4.1863 20.4879 5.93242 20.074 7.09857 18.883L9.96187 15.9586C10.3488 15.5634 10.3432 14.9302 9.9492 14.5443C9.55524 14.1584 8.92217 14.166 8.53521 14.5612L5.67191 17.4856Z" fill="white" fill-opacity="0.94"/>
</g>
<defs>
<clipPath id="clip0_1249_3719">
<rect width="24" height="24" fill="white"/>
</clipPath>
</defs>
</svg>
