<svg width="25" height="21" viewBox="0 0 25 21" fill="white" xmlns="http://www.w3.org/2000/svg">
<path fill-rule="evenodd" clip-rule="evenodd" d="M15 0.875C14.3787 0.875 13.875 1.37868 13.875 2V2.625H3.5C2.60254 2.625 1.875 3.35254 1.875 4.25V16.3819C1.31251 16.444 0.875 16.9209 0.875 17.5V18.0858C0.875 18.5168 1.0462 18.9301 1.35095 19.2348L1.76517 19.649C2.06991 19.9538 2.48324 20.125 2.91421 20.125H21.0858C21.5168 20.125 21.9301 19.9538 22.2348 19.649L22.649 19.2348C22.9538 18.9301 23.125 18.5168 23.125 18.0858V17.5C23.125 16.9209 22.6875 16.444 22.125 16.3819V8.625H22.5C23.3975 8.625 24.125 7.89746 24.125 7V2.5C24.125 1.60254 23.3975 0.875 22.5 0.875H15ZM3.5 3.875H13.875V4.375H5C4.10254 4.375 3.375 5.10254 3.375 6V14.5C3.375 15.3975 4.10254 16.125 5 16.125H19.25C20.1475 16.125 20.875 15.3975 20.875 14.5V16.5C20.875 17.0791 21.3125 17.556 21.875 17.6181V18.0858C21.875 18.1852 21.8355 18.2806 21.7652 18.351L21.351 18.7652C21.2806 18.8355 21.1852 18.875 21.0858 18.875H2.91421C2.81476 18.875 2.71937 18.8355 2.64905 18.7652L2.23484 18.351C2.16451 18.2806 2.125 18.1852 2.125 18.0858V17.6181C2.68749 17.556 3.125 17.0791 3.125 16.5V4.25C3.125 4.04289 3.29289 3.875 3.5 3.875ZM5 5.625H13.875V7.14645C13.875 7.53858 14.0308 7.91466 14.3081 8.19194L14.3566 8.24045C14.6028 8.48667 14.9367 8.625 15.285 8.625H15.4196C15.0662 9.57312 16.1375 10.5261 17.0668 9.94529L19.088 8.682C19.1476 8.64475 19.2165 8.625 19.2868 8.625H19.625V14.5C19.625 14.7071 19.4571 14.875 19.25 14.875H13.1291C12.9816 14.3455 12.7138 13.8582 12.344 13.4603C11.7569 12.8286 10.9607 12.4737 10.1304 12.4737C9.30019 12.4737 8.50395 12.8286 7.91688 13.4603C7.54704 13.8582 7.2793 14.3455 7.13179 14.875H5C4.79289 14.875 4.625 14.7071 4.625 14.5V6C4.625 5.79289 4.79289 5.625 5 5.625ZM7.96145 14.875H12.2994C12.1825 14.5715 12.0107 14.2925 11.7906 14.0557C11.3503 13.582 10.7531 13.3158 10.1304 13.3158C9.50775 13.3158 8.91057 13.582 8.47027 14.0557C8.2502 14.2925 8.07833 14.5715 7.96145 14.875ZM15.125 3.25V2.125H22.5C22.7071 2.125 22.875 2.29289 22.875 2.5V7C22.875 7.20711 22.7071 7.375 22.5 7.375H21.5H20.25H19.2868C18.9822 7.375 18.6838 7.46059 18.4255 7.622L16.734 8.67924C16.8458 8.03033 16.3533 7.375 15.6312 7.375H15.285C15.2683 7.375 15.2523 7.36837 15.2404 7.35656L15.1919 7.30806C15.1491 7.2652 15.125 7.20706 15.125 7.14645V5V3.25ZM7.78261 9.52632C7.78261 10.9221 8.83326 12.0526 10.1304 12.0526C11.4276 12.0526 12.4783 10.9221 12.4783 9.52632C12.4783 8.13053 11.4276 7 10.1304 7C8.83326 7 7.78261 8.13053 7.78261 9.52632ZM11.6957 9.52632C11.6957 10.4568 10.9952 11.2105 10.1304 11.2105C9.26565 11.2105 8.56522 10.4568 8.56522 9.52632C8.56522 8.59579 9.26565 7.84211 10.1304 7.84211C10.9952 7.84211 11.6957 8.59579 11.6957 9.52632Z" fill="white"/>
</svg>
